<?xml version="1.0" encoding="UTF-8"?>
<svg id="Layer_2" xmlns="http://www.w3.org/2000/svg" xmlns:xlink="http://www.w3.org/1999/xlink" viewBox="0 0 512 512">
  <defs>
    <style>
      .cls-1 {
        font-family: PlayfairDisplay-Regular, 'Playfair Display';
        font-size: 72px;
      }

      .cls-2 {
        letter-spacing: -.02em;
      }

      .cls-2, .cls-3, .cls-4, .cls-5 {
        fill: #e0c9a6;
      }

      .cls-3 {
        letter-spacing: -.04em;
      }

      .cls-6 {
        letter-spacing: -.01em;
      }

      .cls-6, .cls-7 {
        fill: #e67878;
      }

      .cls-8 {
        fill: url(#linear-gradient-2);
      }

      .cls-9 {
        fill: url(#linear-gradient);
      }

      .cls-4 {
        letter-spacing: 0em;
      }
    </style>
    <linearGradient id="linear-gradient" x1="-16.45" y1="528.45" x2="529.87" y2="-17.87" gradientUnits="userSpaceOnUse">
      <stop offset="0" stop-color="#140a00"/>
      <stop offset=".2" stop-color="#001400"/>
      <stop offset=".4" stop-color="#233336"/>
      <stop offset=".6" stop-color="#2c6e68"/>
      <stop offset=".8" stop-color="#4a908d"/>
      <stop offset="1" stop-color="#b4e6e6"/>
    </linearGradient>
    <linearGradient id="linear-gradient-2" x1="146.96" y1="369.47" x2="458.37" y2="58.07" gradientUnits="userSpaceOnUse">
      <stop offset=".01" stop-color="#c3a67a"/>
      <stop offset=".54" stop-color="#e0c9a6"/>
      <stop offset="1" stop-color="#ffe6b9"/>
    </linearGradient>
  </defs>
  <rect class="cls-9" width="512" height="512" rx="20.32" ry="20.32"/>
  <path class="cls-8" d="M91,345c45.32.41,71.74-42.61,107-118.67,33-71.16,70.9-109.77,94.67-120.56.42-.19.86.23.69.66-9.24,23.07-41.97,99.35-54.6,135.43-13.59,38.82-52.41,124.24-27.18,126.18,15.42,1.19,23.44-5.97,38.82-37.98h0s46.59-68.78,73.76-90.14c25.12-19.74,48.59-29.52,81.13-27.82.47.02.67.6.32.92-15.27,14.07-11.96,48.36-1.86,69.61,15.91,33.49-16.95,71-50.47,67.94-26.45-2.41-31.06-21.88-51.88-21.88-10.24,0-15.53,6.32-15.53,14.12s6.95,14.12,15.53,14.12c.88,0,1.73-.08,2.56-.21,8.6-.96,9.37-4.2,18.26-4.2,9.71,0,16.59,4.41,42.26,4.41s68.9-25.8,70.32-58.76c1.68-38.99-27.69-55.51-20.87-68.92.2-.39.77-.39.95,0,2.29,5.17,7.11,8.74,12.69,8.74,7.8,0,14.12-6.95,14.12-15.53s-6.37-14.69-14.12-15.53c-1.37-.15-2.68-.22-3.95-.23-77.86-3.99-111.95,29.93-159.8,97.47-.37.53-1.19.05-.9-.53,15.91-31.53,37.23-64.08,61.24-104.47,40.44-68.02,89.59-142.98,126.35-122.72.2.11.31.35.26.58-.27,1.2-.43,2.44-.43,3.73,0,8.58,6.32,15.53,14.12,15.53s14.12-6.95,14.12-15.53-4.94-13.59-14.12-15.53c-57.66-9.96-99.44,42.57-147.98,122.36-.02.04-.05.07-.08.1-28.78,27.29-55.89,73.7-87.18,108.04-.4.44-1.12-.04-.85-.58,26.63-53.13,52.63-116.13,81.55-197.18.31-.87-.2-1.83-1.11-1.98-126.85-20.61-182.62,27.92-180.68,124.53,1.8,90.2-29.92,113.34-60.9,105.25-.37-.1-.5-.53-.27-.83,3.01-3.87,4.88-9.21,4.88-15.13,0-11.79-7.39-21.35-16.5-21.35s-16.5,9.56-16.5,21.35c0,.53.02,1.14.07,1.8.43,6.66,3.21,13.45,7.28,16.97,6.86,7.08,19.76,16.44,44.82,16.44ZM207.71,193.33c-26.91,52.41-42.46,92.41-62.47,116.24-.41.48-1.16-.04-.85-.59,13.55-23.9,18.12-58.31,18.12-92.9,0-61.77,17.54-123.83,127.75-114.42.51.04.67.71.23.97-16.71,9.63-54.78,36.19-82.77,90.71ZM212,336c5.27-23.7,34.75-54.41,60-89,11.38-15.59,22.64-31.14,32.74-41.86.43-.45,1.14.09.83.62-4.71,7.94-31.57,53.24-46.57,88.24-18.88,44.05-27,71-43,69-7.02-.88-8-9-4-27Z"/>
  <text class="cls-1" transform="translate(37.43 459.9)"><tspan class="cls-6" x="0" y="0">J</tspan><tspan class="cls-7" x="22.46" y="0">ulia</tspan><tspan class="cls-5" x="141.84" y="0">Sk</tspan><tspan class="cls-2" x="220.32" y="0">r</tspan><tspan class="cls-5" x="250.92" y="0">e</tspan><tspan class="cls-3" x="287.35" y="0">t</tspan><tspan class="cls-5" x="309.96" y="0">ti</tspan><tspan class="cls-4" x="356.54" y="0">n</tspan><tspan class="cls-5" x="398.8" y="0">g</tspan></text>
</svg>